<?xml version="1.0" encoding="utf-8"?>
<!-- Generator: Adobe Illustrator 16.0.0, SVG Export Plug-In . SVG Version: 6.00 Build 0)  -->
<!DOCTYPE svg PUBLIC "-//W3C//DTD SVG 1.1//EN" "http://www.w3.org/Graphics/SVG/1.1/DTD/svg11.dtd">
<svg version="1.1" id="Layer_1" xmlns="http://www.w3.org/2000/svg" xmlns:xlink="http://www.w3.org/1999/xlink" x="0px" y="0px"
	 width="370.88px" height="465px" viewBox="-7.499 -7.5 370.88 465" enable-background="new -7.499 -7.5 370.88 465"
	 xml:space="preserve">
<g>
	<path fill="#FFFFFF" d="M71.141,380.3c0,9.74-8.24,16.82-19.58,16.82h-0.01c-3.5,0-6.82-0.64-9.79-1.87
		c-1.26,0.92-2.79,1.44-4.4,1.44h-7.06c-2.6,0-5.01-1.341-6.37-3.54l-0.46-0.74c-1.21,2.53-3.79,4.28-6.78,4.28h-6
		c-4.14,0-7.5-3.36-7.5-7.5V357.72c0-4.14,3.36-7.5,7.5-7.5h13.19c5.41,0,10.07,1.87,13.37,5.021c3.42-3.4,8.48-5.44,14.39-5.44
		c5.82,0,10.98,1.771,15.33,5.26c2.99,2.4,3.69,6.681,1.61,9.9l-2.47,3.86c2.34,2.16,3.63,4.54,4.32,6.75
		c-0.01,0.01,0.01,0.02,0.01,0.02c0.1,1.5,0.34,2.93,0.69,4.311v0.01C71.141,380.04,71.141,380.17,71.141,380.3z"/>
</g>
<g>
	<path fill="#FFFFFF" d="M71.131,379.9c-0.35-1.381-0.59-2.811-0.69-4.311C70.921,377.16,71.111,378.65,71.131,379.9z"/>
</g>
<g>
	<path fill="#FFFFFF" d="M70.441,375.59c0.1,1.5,0.34,2.93,0.69,4.311C71.111,378.65,70.921,377.16,70.441,375.59z"/>
</g>
<g>
	<path fill="#FFFFFF" d="M339.381,400.82c-9.521,0-17.11,4.399-21.061,11.529l-1.06-2.489c2.59-2.28,4.359-5.851,4.359-10.641
		c0-0.89-0.149-1.739-0.449-2.529h2.8c0.63,0,1.239-0.08,1.84-0.23c0.58,0.15,1.18,0.23,1.81,0.23h19.9c4.15,0,7.5-3.36,7.5-7.5
		v-4.98c0-4.14-3.35-7.5-7.5-7.5h-6.4v-18.99c0-4.14-3.359-7.5-7.5-7.5h-6c-4.14,0-7.5,3.36-7.5,7.5v3.36l-2.689-6.3
		c-1.181-2.771-3.9-4.561-6.9-4.561h-5.57c-3.01,0-5.72,1.79-6.899,4.561l-2.65,6.2v-3.261c0-4.14-3.359-7.5-7.5-7.5h-6
		c-2.26,0-4.279,1-5.649,2.58c-3.57-1.979-7.71-3-12.25-3c-7.21,0-13.32,2.49-17.59,6.75c-3.311-3.939-8.471-6.33-14.601-6.33
		h-13.18c-1.12,0-2.17,0.24-3.12,0.69c-0.95-0.45-2.01-0.69-3.13-0.69h-21.4c-1.56,0-3.01,0.48-4.2,1.29
		c-1.239-0.92-2.77-1.46-4.43-1.46h-6.59c-2.95,0-5.63,1.74-6.84,4.431l-2.94,6.55l-2.94-6.55c-1.21-2.69-3.89-4.431-6.84-4.431
		h-6.59c-3.34,0-6.19,2.19-7.15,5.25c-4.14-3.5-9.67-5.5-16.07-5.5s-11.93,1.99-16.06,5.47c-4.26-3.59-9.68-5.47-15.83-5.47
		c-14.23,0-24.17,9.69-24.17,23.57c0,0.75,0.03,1.479,0.09,2.2c-0.01,0.01,0.01,0.02,0.01,0.02c0.48,1.57,0.67,3.061,0.69,4.311
		v0.01c2.6,10.39,11.51,17.21,23.42,17.21c6.11,0,11.55-1.92,15.76-5.49c4.14,3.49,9.67,5.49,16.09,5.49
		c5.64,0,10.6-1.55,14.53-4.311c0.29,0.54,0.65,1.04,1.08,1.5c1.42,1.521,3.4,2.381,5.48,2.381h6c2.12,0,4.05-0.891,5.42-2.32
		c1.39,1.46,3.34,2.32,5.42,2.32h3.32c2.08,0,4.03-0.86,5.42-2.32c1.37,1.43,3.3,2.32,5.42,2.32h6c1.141,0,2.25-0.261,3.25-0.75
		c0.98,0.479,2.09,0.75,3.25,0.75h21.74c1.05,0,2.05-0.221,2.96-0.61c0.9,0.4,1.9,0.61,2.95,0.61h5.99
		c2.989,0,5.569-1.75,6.779-4.29l0.46,0.75c1.37,2.199,3.78,3.54,6.37,3.54h7.061c2.29,0,4.42-1.04,5.83-2.79
		c3.649,2.069,8.029,3.22,12.92,3.22c4.51,0,8.649-1.04,12.199-3.021c1.37,1.591,3.4,2.591,5.66,2.591h6
		c0.62,0,1.221-0.07,1.79-0.221c0.01,0,0.01,0,0.01,0c0.591,0.141,1.19,0.221,1.811,0.221h0.86c-1.46,2.239-2.301,5.069-2.301,8.229
		c0,0.07,0,0.15,0.011,0.22c-4-2.84-8.87-4.31-14.32-4.31c-6.061,0-11.35,1.75-15.41,4.85c-1.17-2.609-3.79-4.43-6.84-4.43h-5.99
		c-1.28,0-2.49,0.32-3.55,0.9c-1.06-0.58-2.271-0.9-3.55-0.9h-6c-4.141,0-7.5,3.36-7.5,7.5v19.41c-0.16,0.01-0.42,0.01-0.561-0.01
		v-19.4c0-4.14-3.359-7.5-7.5-7.5h-6c-2.43,0-4.6,1.16-5.96,2.96c-2.79-1.88-6.31-2.96-10.279-2.96h-13.48
		c-1.36,0-2.64,0.36-3.74,1.01c-1.1-0.64-2.38-1.01-3.75-1.01h-5.99c-2.67,0-5.02,1.4-6.34,3.51c-3.1-2.229-7.07-3.51-11.56-3.51
		h-13.19c-0.76,0-1.49,0.11-2.18,0.33c-0.7-0.22-1.43-0.33-2.2-0.33h-25.17c-1.62,0-3.13,0.52-4.35,1.4
		c-2.93-1.221-6.11-1.83-9.51-1.83c-4.5,0-8.5,1.18-11.67,3.25c-1.37-1.721-3.48-2.82-5.85-2.82h-6c-3.07,0-5.7,1.84-6.86,4.48
		c-3.81-2.86-8.69-4.48-14.27-4.48h-12.38c-4.14,0-7.5,3.36-7.5,7.5v31.47c0,4.141,3.36,7.5,7.5,7.5h12.38
		c5.58,0,10.46-1.62,14.27-4.479c1.16,2.64,3.79,4.479,6.86,4.479h6c2.18,0,4.15-0.93,5.51-2.43c3.47,1.86,7.56,2.85,11.92,2.85
		c6.91,0,12.66-2.62,16.1-6.88c0.5,3.65,3.63,6.46,7.42,6.46h5.99c3.2,0,5.92-2,7-4.81c1.07,2.81,3.8,4.81,6.99,4.81h6
		c2.99,0,5.57-1.75,6.78-4.279l0.46,0.739c1.37,2.2,3.78,3.54,6.37,3.54h7.06c0.75,0,1.49-0.109,2.19-0.34
		c0.7,0.22,1.45,0.34,2.23,0.34h5.99c1.37,0,2.65-0.37,3.75-1.01c1.101,0.65,2.38,1.01,3.74,1.01h13.65
		c5.88,0,10.87-2.109,14.17-5.609c3.81,3.779,9.31,6.029,15.72,6.04c5.56,0,10.44-1.71,14.11-4.641c1.21,2.5,3.77,4.21,6.729,4.21
		h5.99c3.07,0,5.71-1.84,6.86-4.479c1.1,0.85,2.3,1.6,3.579,2.24l-0.05,0.1c-1.68,3.36-0.62,7.439,2.48,9.55
		c2.21,1.51,5.3,2.37,8.479,2.37c7.87,0,12.301-4.83,12.971-10c0.58,0.15,1.18,0.22,1.79,0.22h6.42c3.04,0,5.79-1.85,6.939-4.67
		l0.65-1.58h4.42l0.649,1.58c1.15,2.82,3.9,4.67,6.94,4.67h6.42c2.061,0,4-0.85,5.39-2.3c3.44,1.76,7.461,2.72,11.921,2.72
		c14.13,0,24-9.72,24-23.659C363.381,410.55,353.511,400.82,339.381,400.82z M97.591,375.56c-0.78,1.2-1.49,1.58-2.91,1.58
		c-0.94,0-3.13,0-3.13-3.729c0-3.641,2.06-3.641,3.04-3.641c1.71,0,2.45,0.78,2.63,1.021c0.8,1.03,1.85,1.82,3.02,2.31
		C99.181,373.69,98.261,374.53,97.591,375.56z M126.401,377.14c-0.85,0-2.83,0-2.83-3.68c0-3.69,1.98-3.69,2.83-3.69
		c0.83,0,2.79,0,2.79,3.69C129.191,377.14,127.231,377.14,126.401,377.14z M267.091,375.56c-0.78,1.2-1.49,1.58-2.91,1.58
		c-0.94,0-3.13,0-3.13-3.729c0-3.641,2.05-3.641,3.04-3.641c1.71,0,2.449,0.78,2.63,1.021c0.8,1.03,1.85,1.82,3.02,2.31
		C268.681,373.69,267.771,374.53,267.091,375.56z M51.641,427.25v-5.54c0.36,0.43,0.65,1.25,0.65,2.771
		C52.291,426.01,52.001,426.82,51.641,427.25z M212.871,422.91c-0.1-0.17-0.21-0.33-0.319-0.49c0.12-0.3,0.22-0.6,0.319-0.9V422.91z
		 M278.841,426.6c-0.78,1.19-1.48,1.57-2.9,1.57c-0.94,0-3.14,0-3.14-3.72c0-3.65,2.06-3.65,3.05-3.65c1.71,0,2.439,0.78,2.63,1.021
		c0.8,1.029,1.84,1.819,3.02,2.31C280.441,424.72,279.521,425.56,278.841,426.6z M288.411,423.96c-0.13-0.06-0.26-0.12-0.39-0.18
		c0.22-0.12,0.439-0.25,0.64-0.4L288.411,423.96z M307.781,392.43c-0.8-0.33-1.7-0.64-2.71-0.85l0.46-1.14h4.42l0.53,1.3
		C309.521,391.8,308.611,392.05,307.781,392.43z M339.381,428.17c-0.851,0-2.83,0-2.83-3.689c0-3.681,1.979-3.681,2.83-3.681
		c0.84,0,2.79,0,2.79,3.681C342.171,428.17,340.221,428.17,339.381,428.17z"/>
</g>
<g>
	<path fill="#FFFFFF" d="M29.231,435.24v4.979c0,4.141-3.36,7.5-7.5,7.5H0.001c-4.14,0-7.5-3.359-7.5-7.5v-31.47
		c0-4.14,3.36-7.5,7.5-7.5h21.39c4.14,0,7.5,3.36,7.5,7.5v4.97c0,1.971-0.75,3.75-1.98,5.09c0.4,0.91,0.62,1.931,0.62,2.99v4.94
		c0,1.09-0.23,2.12-0.65,3.05C28.331,431.16,29.231,433.1,29.231,435.24z"/>
</g>
<g>
	<path fill="#FFFFFF" d="M212.871,421.52v1.391c-0.1-0.17-0.21-0.33-0.319-0.49C212.671,422.12,212.771,421.82,212.871,421.52z"/>
</g>
<g>
	<path fill="#FFFFFF" d="M346.331,163.65c-1.109-1.3-3.14-2.89-6.569-3.08l-1.891-0.11c-1.729-0.1-3.46-0.2-5.18-0.32
		c-2.3-0.16-4.6-0.34-6.92-0.52l-3.061-0.24c-2.039-0.15-4.029,0.52-5.56,1.87c-0.229,0.21-0.45,0.43-0.65,0.66
		c-3.17-5.13-7.359-9.27-12.649-12.48h34.59c2.33,0,4.57-0.98,6.16-2.68s2.399-4.01,2.24-6.37c-0.051-0.76-0.141-1.56-0.42-2.44
		c-0.051-0.32-0.141-0.92-0.211-1.42c-0.449-3.16-1.3-9.04-3.85-18.14c-0.91-3.25-1.96-6.58-3.1-9.87
		c-2.75-7.99-5.561-14.35-7.431-18.26c-2.08-4.38-6.62-13.26-13.67-23.62c-2.479-3.64-4.979-7.04-7.43-10.09
		c-0.15-0.19-3.65-4.52-7.78-8.9c-18.359-19.48-39.17-31.6-40.05-32.1c-8.43-4.87-17.41-9.05-26.69-12.42
		C216.801-3.93,196.971-7.5,177.251-7.5c-16.42,0-33.1,2.48-49.6,7.38c-30.42,9.02-56.86,25.86-78.6,50.05
		c-10.71,11.92-19.6,25.24-26.42,39.58c-1.25,2.62-1.08,5.65,0.47,8.11c1.55,2.47,4.22,3.94,7.13,3.94l6.22,0.01
		c4.38,0,8.67-0.01,12.97-0.04c3.68-0.03,6.39-2.48,7.6-4.58c5.78-10,12.03-18.55,19.11-26.14c6.35-6.81,12.52-12.59,23.59-20.35
		c2.84-1.99,5.78-3.9,8.74-5.69l17.05-8.13c8.04-3.31,16.45-5.84,25-7.52c7.8-1.54,15.77-2.39,23.68-2.53
		c13.23-0.23,26.2,1.35,38.42,4.67c9.54,2.58,18.68,6.11,27.19,10.49c11.87,6.1,22.93,14.04,32.87,23.6
		c16.909,16.26,29.409,35.48,33.149,44.81l-77.09,0.47c-11.4,0-20.41,2.14-28.37,6.73c-9.25,5.34-14.85,12.73-16.64,21.95
		c-1.351,6.92-0.59,13.49,2.26,19.55c3.72,7.91,10.38,13.75,20.35,17.83c2.41,0.99,4.841,1.73,7.21,2.27
		c-12.26,0-24.529-0.01-36.79-0.02c-3.05,0-5.73,1-7.95,2.99c-0.13-0.21-0.29-0.41-0.46-0.6c7.82-6.37,12.22-14.1,13.4-23.46
		c1.46-11.66-1.37-21.63-8.4-29.65c-8.08-9.21-18.92-14.44-34.09-16.46c-7.15-0.96-14.22-1.06-20.85-1.07
		c-13.38-0.04-27.56-0.06-45.97-0.06c-8.49,0-16.98,0-25.47,0.01h-27.41c-3.45,0-6.46,2.36-7.28,5.71l-0.74,2.96
		c-0.63,2.59-1.27,5.16-1.89,7.73c-1.97,8.07-3.23,16.79-3.74,25.92c-0.97,17.12,0.17,32.48,3.47,46.95l0.3,1.33
		c1.24,5.43,2.52,11.05,4.49,16.56c2.63,7.35,5.8,14.96,9.41,22.63c5.79,12.301,13.55,24.021,23.74,35.82
		c9.29,10.75,19.99,20.4,31.81,28.66c11.92,8.33,25.01,15.14,38.9,20.25c9.72,3.58,18.68,6.01,27.4,7.45l1.05,0.17
		c5.76,0.95,11.72,1.93,17.81,2.35c4.29,0.29,8.6,0.44,12.81,0.44c13.34,0,26.45-1.49,38.97-4.41c8.729-2.04,17.3-4.76,25.47-8.101
		c10.95-4.46,21.15-9.85,30.33-16.01c19.53-13.1,35.88-29.55,48.6-48.899c9.601-14.601,16.891-30.591,21.66-47.521
		c1.431-5.07,3.011-11.1,3.931-17.4c0.72-5.01,1.159-10.04,1.58-14.91c0.21-2.55,0.439-5.18,0.71-7.74
		C348.681,167.2,347.441,164.95,346.331,163.65z M49.721,155.65c-2.5,0-4.81,0.93-6.46,2.6c-2.57,2.59-2.56,5.79-2.56,6.84
		c0.02,5.83,0.03,11.67,0.03,17.5c-0.17-1.26-0.32-2.51-0.46-3.76c-1-9.52-1.01-19.39-0.02-29.42c3.64,0.01,7.28,0.02,10.92,0.02
		l13.04-0.01l24.67,0.01c13.65,0.01,27.3,0.02,40.94,0.02c2.49,0,4.8,0.46,7.05,1.39c0.84,0.35,1.08,1,1.14,1.49
		c0.04,0.37-0.02,0.87-0.31,1.08c-1.99,1.44-4.41,2.15-7.6,2.23c-2.16,0.06-4.33,0.06-6.35,0.06h-3.42l-5.61,0.01l-64.42-0.05
		C50.131,155.66,49.941,155.65,49.721,155.65z M305.391,213.41c-2.29,6.56-5.53,13.26-10.2,21.04l-5.6,8.22
		c-0.021,0.04-0.051,0.07-0.07,0.11L287,246.62l-1.529,2.16c-10.23,13.04-22.55,24.02-36.62,32.649
		c-15.09,9.261-32.11,15.641-49.22,18.471c-13.391,2.22-28.13,2.34-42.23,0.31c-13.14-1.89-26.17-5.69-37.69-10.99
		c-0.24-0.109-24.27-11.359-44.69-32.899c-1.41-1.49-2.74-3.021-2.75-3.03c-0.04-0.04-3.51-4.06-6.79-8.86
		c-6.49-9.489-11.34-19.13-14.76-27.02h25.79c4.14,0,7.5-3.36,7.5-7.5l0.01-6.65v-8.79c4.7,0.01,9.41,0.01,14.11,0.01
		c5.04,0.01,10.09,0.01,15.13,0.02c3.21,2.63,6.41,5.28,9.62,7.92l13.55,11.22c2.96,2.45,7.29,2.26,10.03-0.43
		c1.49,2.56,4.25,4.16,7.27,4.16h75.7l9.51,0.13h1.1c3.4,0,6.79,0.01,10.181,0.02c3.399,0.01,6.81,0.02,10.21,0.02
		c6.689,0,12.1-0.04,17.04-0.12c10.069-0.16,19.16-2.79,27.01-7.83c0.99-0.63,1.93-1.28,2.83-1.95
		C306.681,209.63,306.041,211.55,305.391,213.41z"/>
</g>
<g>
	<path fill="#4698C1" d="M23.111,377.623H16.69v11.566h-5.996v-31.469h13.183c6.634,0,11.015,3.997,11.015,9.951
		c0,4.082-2.169,7.229-5.826,8.803l8.292,12.715h-7.06L23.111,377.623z M16.69,372.646h6.081c3.571,0,5.953-1.998,5.953-4.975
		s-2.211-4.977-5.528-4.977H16.69V372.646z"/>
	<path fill="#4698C1" d="M40.376,385.661l2.254-4.041c2.679,2.213,5.655,3.021,8.547,3.021c3.956,0,6.252-1.36,6.252-3.785
		c0-2.551-2.638-3.656-6.592-4.764l-1.786-0.51c-5.188-1.402-9.058-3.571-9.058-8.718c0-5.741,4.635-9.568,11.651-9.568
		c4.04,0,7.612,1.19,10.631,3.614l-2.678,4.169c-2.34-1.873-4.848-2.808-7.91-2.808c-3.317,0-5.486,1.401-5.486,3.613
		c0,2.51,2.509,3.402,5.613,4.297l1.828,0.508c4.85,1.32,9.994,3.955,9.994,9.611c0,5.57-4.848,9.314-12.077,9.314
		C47.222,389.616,43.182,388.254,40.376,385.661"/>
	<path fill="#4698C1" d="M77.838,373.37c0-9.652,6.677-16.074,16.671-16.074c5.146,0,9.313,1.701,12.417,5.062l-3.784,3.826
		c-1.787-2.295-4.806-3.912-8.547-3.912c-6.338,0-10.548,4.465-10.548,11.143c0,6.762,4.296,11.227,10.632,11.227
		c4.252,0,7.187-1.914,9.186-4.975l4.04,3.613c-3.02,4.125-7.612,6.338-13.354,6.338C84.558,389.616,77.838,383.107,77.838,373.37"
		/>
	<path fill="#4698C1" d="M109.858,373.456c0-9.696,6.635-16.16,16.543-16.16c9.866,0,16.5,6.464,16.5,16.16
		c0,9.694-6.634,16.16-16.5,16.16C116.493,389.616,109.858,383.15,109.858,373.456 M136.692,373.456
		c0-6.72-4.125-11.185-10.291-11.185s-10.334,4.465-10.334,11.185c0,6.719,4.168,11.185,10.334,11.185
		S136.692,380.174,136.692,373.456"/>
	<polygon fill="#4698C1" points="178.494,389.189 177.26,367.713 167.649,389.189 164.332,389.189 154.723,367.799 153.488,389.189 
		147.492,389.189 149.618,357.55 156.21,357.55 165.99,379.366 175.771,357.55 182.364,357.55 184.489,389.189 	"/>
	<polygon fill="#4698C1" points="212.726,384.214 212.726,389.189 190.996,389.189 190.996,357.719 212.386,357.719 
		212.386,362.695 196.992,362.695 196.992,370.775 211.024,370.775 211.024,375.709 196.992,375.709 196.992,384.214 	"/>
	<path fill="#4698C1" d="M231.054,377.623h-6.424v11.566h-5.994v-31.469h13.183c6.634,0,11.015,3.997,11.015,9.951
		c0,4.082-2.17,7.229-5.826,8.803l8.293,12.715h-7.059L231.054,377.623z M224.63,372.646h6.082c3.572,0,5.955-1.998,5.955-4.975
		s-2.213-4.977-5.528-4.977h-6.509V372.646z"/>
	<path fill="#4698C1" d="M247.339,373.37c0-9.652,6.677-16.074,16.67-16.074c5.146,0,9.314,1.701,12.418,5.062l-3.785,3.826
		c-1.786-2.295-4.807-3.912-8.549-3.912c-6.336,0-10.547,4.465-10.547,11.143c0,6.762,4.297,11.227,10.633,11.227
		c4.253,0,7.188-1.914,9.188-4.975l4.039,3.613c-3.02,4.125-7.613,6.338-13.354,6.338
		C254.059,389.616,247.339,383.107,247.339,373.37"/>
	<rect x="281.912" y="357.721" fill="#4698C1" width="5.996" height="31.469"/>
	<path fill="#4698C1" d="M314.996,382.939h-14.502l-2.551,6.25h-6.424l13.438-31.469h5.572l13.438,31.469h-6.422L314.996,382.939z
		 M312.996,377.963l-5.23-12.801l-5.23,12.801H312.996z"/>
	<polygon fill="#4698C1" points="347.525,384.214 347.525,389.189 327.625,389.189 327.625,357.719 333.621,357.719 
		333.621,384.214 	"/>
	<polygon fill="#4698C1" points="21.73,435.243 21.73,440.218 0,440.218 0,408.75 21.391,408.75 21.391,413.725 5.996,413.725 
		5.996,421.805 20.03,421.805 20.03,426.739 5.996,426.739 5.996,435.243 	"/>
	<path fill="#4698C1" d="M66.04,424.484c0,9.44-6.209,15.733-15.521,15.733H38.144V408.75h12.375
		C59.831,408.75,66.04,415.042,66.04,424.484 M59.789,424.484c0-6.465-3.7-10.76-9.271-10.76H44.14v21.519h6.379
		C56.089,435.243,59.789,430.949,59.789,424.484"/>
	<rect x="71.652" y="408.75" fill="#4698C1" width="5.996" height="31.469"/>
	<path fill="#4698C1" d="M83.898,436.689l2.254-4.04c2.679,2.213,5.655,3.02,8.548,3.02c3.955,0,6.251-1.36,6.251-3.785
		c0-2.551-2.637-3.657-6.592-4.763l-1.785-0.511c-5.189-1.402-9.059-3.572-9.059-8.718c0-5.74,4.635-9.568,11.652-9.568
		c4.04,0,7.612,1.191,10.632,3.615l-2.68,4.166c-2.338-1.869-4.848-2.807-7.91-2.807c-3.316,0-5.485,1.404-5.485,3.615
		c0,2.51,2.509,3.402,5.612,4.295l1.83,0.511c4.849,1.317,9.993,3.954,9.993,9.61c0,5.571-4.848,9.313-12.077,9.313
		C90.746,440.644,86.705,439.284,83.898,436.689"/>
	<polygon fill="#4698C1" points="134.205,413.725 124.595,413.725 124.595,440.218 118.598,440.218 118.598,413.725 109.03,413.725 
		109.03,408.75 134.205,408.75 	"/>
	<path fill="#4698C1" d="M151.002,428.651h-6.421v11.566h-5.997V408.75h13.184c6.634,0,11.015,3.997,11.015,9.95
		c0,4.084-2.169,7.229-5.827,8.804l8.293,12.715h-7.06L151.002,428.651z M144.581,423.676h6.081c3.571,0,5.953-2,5.953-4.977
		s-2.211-4.975-5.529-4.975h-6.505V423.676L144.581,423.676z"/>
	<rect x="169.669" y="408.75" fill="#4698C1" width="5.996" height="31.469"/>
	<path fill="#4698C1" d="M207.771,431.075c0,5.485-4.338,9.144-10.973,9.144h-13.649V408.75h13.479c5.656,0,9.441,3.316,9.441,8.25
		c0,2.85-1.531,5.104-4.21,6.55C205.518,424.782,207.771,427.503,207.771,431.075 M189.145,421.592h6.038
		c2.85,0,4.721-1.572,4.721-3.955c0-2.339-1.912-3.912-4.677-3.912h-6.082V421.592L189.145,421.592z M201.604,430.905
		c0-2.636-2.084-4.379-5.103-4.379h-7.357v8.717h7.271C199.521,435.243,201.604,433.499,201.604,430.905"/>
	<path fill="#4698C1" d="M212.873,428.311V408.75h5.996v19.308c0,4.55,3.146,7.611,7.824,7.611c4.637,0,7.74-3.063,7.74-7.611
		V408.75h5.996v19.562c0,7.399-5.486,12.334-13.736,12.334C218.401,440.644,212.873,435.71,212.873,428.311"/>
	<rect x="247.53" y="408.75" fill="#4698C1" width="5.996" height="31.469"/>
	<path fill="#4698C1" d="M277.169,440.601l-1.19,1.913c2.722,0.086,4.465,1.531,4.465,3.572c0,2.34-2.168,3.914-5.569,3.914
		c-1.701,0-3.317-0.426-4.254-1.064l1.063-2.126c0.595,0.469,1.53,0.768,2.594,0.768c1.446,0,2.296-0.596,2.296-1.447
		c0-0.808-0.85-1.318-2.082-1.318c-0.597,0-1.105,0.129-1.574,0.342l-0.766-1.361l1.786-3.23
		c-8.931-0.767-14.843-7.018-14.843-16.16c0-9.653,6.678-16.075,16.671-16.075c5.146,0,9.313,1.701,12.418,5.063l-3.785,3.826
		c-1.785-2.296-4.806-3.912-8.547-3.912c-6.337,0-10.547,4.465-10.547,11.143c0,6.762,4.295,11.227,10.631,11.227
		c4.252,0,7.188-1.914,9.187-4.976l4.041,3.614C286.396,438.092,282.271,440.262,277.169,440.601"/>
	<path fill="#4698C1" d="M313.103,433.967h-14.502l-2.553,6.251h-6.42l13.438-31.469h5.57l13.438,31.469h-6.42L313.103,433.967z
		 M300.728,404.922h-3.146c0-3.699,1.957-6.124,4.848-6.124c2.809,0,4.977,2.382,6.805,2.382c1.063,0,1.744-0.68,1.744-1.957h3.146
		c0,3.913-1.912,6.125-4.805,6.125c-2.682,0-5.02-2.383-6.848-2.383C301.451,402.965,300.728,403.73,300.728,404.922
		 M311.103,428.992l-5.229-12.801l-5.232,12.801H311.103z"/>
	<path fill="#4698C1" d="M322.839,424.484c0-9.696,6.635-16.16,16.543-16.16c9.865,0,16.5,6.464,16.5,16.16
		c0,9.695-6.635,16.159-16.5,16.159C329.474,440.644,322.839,434.18,322.839,424.484 M349.673,424.484
		c0-6.719-4.125-11.186-10.291-11.186s-10.334,4.467-10.334,11.186c0,6.72,4.168,11.185,10.334,11.185
		S349.673,431.204,349.673,424.484"/>
	<path fill="#4698C1" d="M96.936,163.204c3.701,0,11.035,0,11.174,0c3.671,0,7.342,0.006,11.014-0.002
		c3.724-0.008,7.449,0.032,11.171-0.065c4.255-0.111,8.26-1.093,11.794-3.644c5.3-3.827,4.414-12.767-2.34-15.577
		c-3.184-1.323-6.479-1.966-9.921-1.968c-21.175-0.002-42.35-0.018-63.526-0.026c-10.321-0.005-20.643,0.031-30.964-0.039
		c-1.413-0.009-1.815,0.522-1.978,1.773c-1.552,11.968-1.813,23.961-0.543,35.96c0.789,7.442,2.229,14.768,4.153,22.021
		c0,0,6.425,23.77,22.316,47.025c3.56,5.213,7.322,9.545,7.322,9.545s1.42,1.635,2.969,3.271
		c21.75,22.946,46.997,34.556,46.997,34.556c5.571,2.562,19.968,8.748,39.759,11.596c20.963,3.017,37.524,0.829,44.52-0.328
		c9.395-1.553,29.766-5.891,51.914-19.476c18.816-11.54,31.286-25.072,38.714-34.563c0.569-0.804,1.142-1.605,1.713-2.41
		l2.597-3.961l5.719-8.399c4.338-7.21,8.201-14.682,10.965-22.619c2.4-6.885,4.424-13.922,6.24-20.986
		c2.336-9.087,3.021-18.428,3.422-28.029c3.391,0.26,6.705,0.53,10.023,0.764c2.387,0.168,4.775,0.291,7.166,0.43
		c1.115,0.064,1.688,0.424,1.551,1.76c-0.77,7.449-1.18,14.944-2.252,22.345c-0.803,5.542-2.197,11.031-3.721,16.433
		c-4.564,16.196-11.451,31.357-20.709,45.437c-12.334,18.758-27.896,34.306-46.509,46.793c-9.11,6.113-18.826,11.154-28.985,15.3
		c-7.904,3.226-16.037,5.799-24.348,7.739c-16.316,3.808-32.884,4.918-49.569,3.785c-6.076-0.412-12.124-1.446-18.146-2.438
		c-8.909-1.467-17.571-3.975-26.032-7.087c-13.21-4.86-25.636-11.288-37.186-19.356c-11.274-7.881-21.439-17.004-30.433-27.42
		c-8.986-10.41-16.77-21.656-22.631-34.109c-3.373-7.168-6.46-14.506-9.134-21.962c-1.977-5.511-3.232-11.302-4.539-17.032
		c-3.37-14.774-4.144-29.784-3.295-44.857c0.466-8.265,1.57-16.495,3.538-24.571c0.863-3.544,1.74-7.083,2.623-10.669h1.946
		c32.294,0,64.59-0.052,96.884,0.042c6.632,0.019,13.321,0.131,19.877,1.005c11.213,1.496,21.659,5.104,29.444,13.975
		c5.996,6.833,7.7,14.981,6.596,23.767c-1.302,10.361-7.616,17.256-16.197,22.411c-1.92,1.155-3.989,2.064-5.975,3.078
		c2.534,3.525,5.979,4.816,10.602,3.887c-7.419,7.434-14.415,14.443-21.514,21.554c-3.521-2.915-7.012-5.806-10.505-8.694
		c-4.643-3.836-9.273-7.685-13.945-11.483c-0.482-0.392-1.212-0.675-1.827-0.677c-12.291-0.038-24.581-0.006-36.87-0.058
		c-1.357-0.006-1.576,0.527-1.569,1.688c0.037,6.437,0.018,12.874,0.017,19.313v1.955H48.327c-0.033-0.612-0.092-1.177-0.092-1.742
		c-0.005-14.366,0.013-28.73-0.031-43.095c-0.002-0.734,0.078-1.229,0.375-1.528c0.468-0.473,1.245-0.395,1.461-0.377
		L96.936,163.204z"/>
	<path fill="#F09121" d="M313.496,117.618c5.547-5.421-13.145-36.061-35.623-57.676c-14.15-13.603-27.642-21.266-34.643-24.865
		c-6.637-3.412-16.375-7.726-28.65-11.059c-13.283-3.605-26.789-5.153-40.511-4.923c-11.37,0.191-20.291,1.73-25.014,2.663
		c-10.708,2.115-19.657,5.167-26.551,8.008c-0.018,0.006-0.032,0.013-0.049,0.021c-5.836,2.784-11.673,5.569-17.51,8.353
		c-0.027,0.013-0.053,0.026-0.078,0.042c-2.421,1.455-5.694,3.509-9.447,6.138c-11.163,7.815-17.666,13.752-24.776,21.373
		c-7.813,8.375-14.401,17.613-20.115,27.509c-0.222,0.384-0.77,0.823-1.168,0.826c-6.284,0.048-12.568,0.039-19.123,0.037
		c-0.678-0.001-1.132-0.708-0.84-1.319c6.636-13.96,15.058-26.483,25.232-37.803c20.594-22.916,45.594-39.104,75.159-47.877
		c34.903-10.357,69.621-9.33,103.857,3.104c12.447,4.521,21.508,9.554,25.508,11.863c0,0,20.52,11.847,38.342,30.75
		c3.977,4.217,7.389,8.456,7.389,8.456c1.037,1.291,3.689,4.634,7.078,9.614c7.16,10.528,11.514,19.287,13.1,22.618
		c1.057,2.217,4.086,8.71,7.113,17.485c1.52,4.392,2.518,7.862,2.965,9.455c3.508,12.495,3.602,18.506,4.129,19.771
		c0.033,0.08,0.066,0.383,0.094,0.751c0.037,0.538-0.383,0.995-0.92,0.995h-1.209c-36.072,0-72.146,0-108.22,0.003
		c-1.116,0.001-2.241-0.014-3.347,0.119c-1.776,0.213-3.053,1.547-3.23,3.218c-0.173,1.633,0.684,3.106,2.402,3.628
		c1.193,0.364,2.494,0.519,3.748,0.523c14.1,0.035,28.199,0.037,42.299,0.015c5.43-0.009,10.871-0.017,16.175,1.288
		c9.76,2.401,18.245,6.831,23.507,15.871c3.613,6.207,4.225,12.923,2.666,19.851c-1.697,7.541-6.498,12.793-12.801,16.835
		c-7.021,4.502-14.854,6.513-23.083,6.643c-12.767,0.201-25.537,0.071-38.308,0.078l-9.557-0.128h-75.76
		c-0.814,0-1.23-0.98-0.664-1.565c0.266-0.273,0.527-0.542,0.792-0.807c6.57-6.574,13.165-13.126,19.696-19.738
		c0.941-0.953,1.877-1.327,3.203-1.326c32.243,0.034,64.485,0.034,96.728,0.019c3.633-0.002,7.21-0.365,10.463-2.227
		c2.007-1.147,3.474-2.59,3.239-5.151c-0.221-2.412-1.855-3.823-3.84-4.405c-2.865-0.841-5.885-1.575-8.846-1.604
		c-15.215-0.157-30.432-0.077-45.648-0.071c-6.737,0.002-13.378-0.666-19.674-3.244c-7.008-2.871-13.057-6.954-16.405-14.079
		c-2.237-4.758-2.698-9.756-1.69-14.926c1.523-7.825,6.396-13.06,13.027-16.889c7.623-4.399,15.988-5.732,24.657-5.729
		L313.496,117.618z"/>
</g>
</svg>
